<svg xmlns="http://www.w3.org/2000/svg" viewBox="0 0 640 480" role="img" aria-label="Agricultural machinery">
  <defs>
    <linearGradient id="bg2" x1="0" x2="1" y1="0" y2="1">
      <stop offset="0%" stop-color="#fffdf9"/>
      <stop offset="100%" stop-color="#f2e4d1"/>
    </linearGradient>
  </defs>
  <rect width="640" height="480" rx="34" fill="url(#bg2)"/>
  <circle cx="512" cy="94" r="58" fill="#ecd6bf"/>
  <path d="M0 350C92 313 174 331 252 303C333 274 404 223 501 239C568 251 611 286 640 303V480H0V350Z" fill="#ead4bc"/>
  <rect x="110" y="250" width="190" height="78" rx="20" fill="#b06a3d"/>
  <rect x="136" y="232" width="116" height="54" rx="14" fill="#8a572f"/>
  <circle cx="154" cy="356" r="46" fill="#fff7ee" stroke="#8a572f" stroke-width="14"/>
  <circle cx="154" cy="356" r="18" fill="#8a572f"/>
  <circle cx="260" cy="356" r="32" fill="#fff7ee" stroke="#8a572f" stroke-width="12"/>
  <circle cx="260" cy="356" r="12" fill="#8a572f"/>
  <rect x="334" y="182" width="168" height="70" rx="18" fill="#623a1d"/>
  <circle cx="352" cy="290" r="54" fill="#fff7ee" stroke="#623a1d" stroke-width="14"/>
  <circle cx="352" cy="290" r="18" fill="#623a1d"/>
  <path d="M376 184c28-22 70-22 98 0" fill="none" stroke="#b06a3d" stroke-width="14" stroke-linecap="round"/>
  <path d="M426 252v100" stroke="#8a572f" stroke-width="14" stroke-linecap="round"/>
  <path d="M426 280h74" stroke="#8a572f" stroke-width="14" stroke-linecap="round"/>
  <path d="M500 280l34 28" stroke="#8a572f" stroke-width="14" stroke-linecap="round"/>
  <path d="M500 280l34-28" stroke="#8a572f" stroke-width="14" stroke-linecap="round"/>
  <circle cx="558" cy="320" r="42" fill="#fff7ee" stroke="#8a572f" stroke-width="12"/>
  <circle cx="558" cy="320" r="14" fill="#8a572f"/>
</svg>
