<svg xmlns="http://www.w3.org/2000/svg" viewBox="0 0 640 480" role="img" aria-label="Surveyor with measuring tools">
  <defs>
    <linearGradient id="sky" x1="0" x2="1" y1="0" y2="1">
      <stop offset="0%" stop-color="#fffdf9"/>
      <stop offset="100%" stop-color="#f3e7d8"/>
    </linearGradient>
    <linearGradient id="earth" x1="0" x2="0" y1="0" y2="1">
      <stop offset="0%" stop-color="#c68a57"/>
      <stop offset="100%" stop-color="#8a572f"/>
    </linearGradient>
  </defs>
  <rect width="640" height="480" rx="34" fill="url(#sky)"/>
  <circle cx="505" cy="88" r="54" fill="#ecd6bf"/>
  <path d="M0 350C100 310 176 328 263 298C365 262 414 217 514 238C574 250 610 284 640 300V480H0V350Z" fill="#edd7c1"/>
  <path d="M96 318h154l28 114H76l20-114Z" fill="#c9874b"/>
  <path d="M120 276h104v64H120z" fill="#fff" opacity=".88"/>
  <rect x="246" y="208" width="16" height="174" rx="8" fill="#623a1d"/>
  <rect x="220" y="248" width="128" height="12" rx="6" transform="rotate(31 220 248)" fill="#8a572f"/>
  <rect x="238" y="190" width="156" height="16" rx="8" fill="#8a572f"/>
  <rect x="362" y="170" width="36" height="18" rx="9" fill="#b06a3d"/>
  <circle cx="282" cy="330" r="62" fill="#fff7ee" stroke="#8a572f" stroke-width="14"/>
  <circle cx="282" cy="330" r="24" fill="#8a572f"/>
  <rect x="400" y="196" width="14" height="148" rx="7" fill="#623a1d"/>
  <rect x="404" y="196" width="78" height="12" rx="6" transform="rotate(68 404 196)" fill="#8a572f"/>
  <circle cx="432" cy="214" r="12" fill="#b06a3d"/>
  <rect x="368" y="282" width="128" height="16" rx="8" fill="#623a1d"/>
  <path d="M368 298l-16 66h44l14-66z" fill="#8a572f"/>
  <path d="M492 298l16 66h-44l-14-66z" fill="#8a572f"/>
  <path d="M118 118c18-36 62-58 110-58" fill="none" stroke="#b06a3d" stroke-width="14" stroke-linecap="round"/>
  <path d="M360 136h134" stroke="#d9b694" stroke-width="16" stroke-linecap="round"/>
</svg>
