<svg xmlns="http://www.w3.org/2000/svg" viewBox="0 0 640 480" role="img" aria-label="Agricultural tractor">
  <defs>
    <linearGradient id="bg" x1="0" x2="1" y1="0" y2="1">
      <stop offset="0%" stop-color="#fffdf9"/>
      <stop offset="100%" stop-color="#f5eadb"/>
    </linearGradient>
  </defs>
  <rect width="640" height="480" rx="34" fill="url(#bg)"/>
  <circle cx="512" cy="94" r="58" fill="#ecd6bf"/>
  <path d="M0 350C97 310 180 330 258 302C337 274 405 220 506 242C577 257 610 289 640 306V480H0V350Z" fill="#ead4bc"/>
  <rect x="142" y="250" width="252" height="72" rx="20" fill="#8a572f"/>
  <rect x="220" y="192" width="132" height="84" rx="18" fill="#b06a3d"/>
  <rect x="252" y="210" width="74" height="40" rx="8" fill="#f7f1e8" opacity=".95"/>
  <path d="M100 288h64l34 34-14 14H92c-15 0-20-8-20-20s12-28 28-28Z" fill="#623a1d"/>
  <rect x="384" y="266" width="100" height="18" rx="9" fill="#623a1d"/>
  <rect x="468" y="210" width="14" height="94" rx="7" fill="#623a1d"/>
  <circle cx="216" cy="356" r="78" fill="#fff7ee" stroke="#623a1d" stroke-width="16"/>
  <circle cx="216" cy="356" r="34" fill="#623a1d"/>
  <circle cx="470" cy="352" r="46" fill="#fff7ee" stroke="#623a1d" stroke-width="14"/>
  <circle cx="470" cy="352" r="18" fill="#623a1d"/>
  <path d="M342 182h48l16 22h-48l-16-22Z" fill="#623a1d"/>
  <path d="M390 204h68" stroke="#623a1d" stroke-width="14" stroke-linecap="round"/>
  <rect x="412" y="186" width="16" height="36" rx="8" fill="#b06a3d"/>
  <path d="M408 238h54" stroke="#d9b694" stroke-width="12" stroke-linecap="round"/>
</svg>
